<svg width="112" height="40" viewBox="0 0 112 40" fill="none" xmlns="http://www.w3.org/2000/svg">
<mask id="path-1-inside-1_11_6623" fill="white">
<path d="M0 6C0 2.68629 2.68629 0 6 0H112V34C112 37.3137 109.314 40 106 40H0V6Z"/>
</mask>
<path d="M0 6C0 2.68629 2.68629 0 6 0H112V34C112 37.3137 109.314 40 106 40H0V6Z" fill="white"/>
<mask id="path-3-inside-2_11_6623" fill="white">
<path d="M0 6C0 2.68629 2.68629 0 6 0H40V34C40 37.3137 37.3137 40 34 40H0V6Z"/>
</mask>
<path d="M0 6C0 2.68629 2.68629 0 6 0H40V34C40 37.3137 37.3137 40 34 40H0V6Z" fill="#272E71"/>
<path d="M20 19.75C20.7292 19.75 21.349 19.4948 21.8594 18.9844C22.3802 18.4635 22.6406 17.8385 22.6406 17.1094C22.6406 16.3802 22.3802 15.7604 21.8594 15.25C21.349 14.7292 20.7292 14.4688 20 14.4688C19.2708 14.4688 18.6458 14.7292 18.125 15.25C17.6146 15.7604 17.3594 16.3802 17.3594 17.1094C17.3594 17.8385 17.6146 18.4635 18.125 18.9844C18.6458 19.4948 19.2708 19.75 20 19.75ZM20 15.4688C20.4583 15.4688 20.8438 15.6302 21.1562 15.9531C21.4792 16.276 21.6406 16.6615 21.6406 17.1094C21.6406 17.5677 21.4792 17.9583 21.1562 18.2812C20.8438 18.5938 20.4583 18.75 20 18.75C19.5417 18.75 19.151 18.5938 18.8281 18.2812C18.5156 17.9583 18.3594 17.5677 18.3594 17.1094C18.3594 16.6615 18.5156 16.276 18.8281 15.9531C19.151 15.6302 19.5417 15.4688 20 15.4688ZM26.4062 25.6406L23.5469 20.6875L23.75 20.625C23.9688 20.5625 24.1458 20.4427 24.2812 20.2656C24.4271 20.0781 24.5 19.8698 24.5 19.6406C24.5 19.6302 24.5 19.6198 24.5 19.6094C24.5 19.599 24.5 19.5885 24.5 19.5781L24.4531 18.5469L25.0938 17.75C25.1667 17.6667 25.2188 17.5729 25.25 17.4688C25.2917 17.3542 25.3125 17.2344 25.3125 17.1094C25.3125 16.9844 25.2917 16.8698 25.25 16.7656C25.2188 16.651 25.1667 16.5521 25.0938 16.4688L24.4531 15.6562L24.5 14.6406C24.5 14.6302 24.5 14.625 24.5 14.625C24.5 14.6146 24.5 14.6042 24.5 14.5938C24.5 14.3542 24.4271 14.1458 24.2812 13.9688C24.1458 13.7812 23.9688 13.6562 23.75 13.5938L22.75 13.3125L22.1875 12.4688C22.0938 12.3229 21.9688 12.2083 21.8125 12.125C21.6667 12.0417 21.5052 12 21.3281 12C21.2656 12 21.2031 12.0052 21.1406 12.0156C21.0781 12.026 21.0156 12.0417 20.9531 12.0625H20.9688L20 12.4375C20 12.4375 19.9948 12.4375 19.9844 12.4375C19.9844 12.4271 19.9844 12.4271 19.9844 12.4375L19.0312 12.0625C18.9792 12.0417 18.9219 12.026 18.8594 12.0156C18.7969 12.0052 18.7344 12 18.6719 12C18.4948 12 18.3281 12.0417 18.1719 12.125C18.026 12.2083 17.9062 12.3229 17.8125 12.4688L17.2344 13.3281L16.25 13.5938C16.0312 13.6562 15.849 13.7812 15.7031 13.9688C15.5677 14.1458 15.5 14.3542 15.5 14.5938C15.5 14.5938 15.5 14.599 15.5 14.6094C15.5 14.6198 15.5 14.6302 15.5 14.6406L15.5469 15.6719L14.9062 16.4688C14.8333 16.5521 14.776 16.651 14.7344 16.7656C14.7031 16.8698 14.6875 16.9844 14.6875 17.1094C14.6875 17.2344 14.7031 17.3542 14.7344 17.4688C14.776 17.5729 14.8333 17.6667 14.9062 17.75L15.5469 18.5625L15.5 19.5781C15.5 19.5885 15.5 19.599 15.5 19.6094C15.5 19.6198 15.5 19.6302 15.5 19.6406C15.5 19.8698 15.5677 20.0781 15.7031 20.2656C15.849 20.4427 16.0312 20.5625 16.25 20.625L16.4531 20.6875L13.5938 25.6406C13.5729 25.6823 13.5573 25.724 13.5469 25.7656C13.5365 25.8073 13.5312 25.849 13.5312 25.8906C13.5312 25.9531 13.5365 26.0104 13.5469 26.0625C13.5677 26.1146 13.5938 26.1615 13.625 26.2031C13.6771 26.2552 13.7344 26.3021 13.7969 26.3438C13.8698 26.375 13.9479 26.3906 14.0312 26.3906C14.0521 26.3906 14.0729 26.3906 14.0938 26.3906C14.1146 26.3906 14.1354 26.3854 14.1562 26.375L15.8594 25.9219L16.3281 27.625C16.3594 27.7396 16.4167 27.8281 16.5 27.8906C16.5938 27.9635 16.6979 28 16.8125 28C16.8958 28 16.974 27.974 17.0469 27.9219C17.1302 27.8802 17.1927 27.8229 17.2344 27.75L20 22.9688L22.7656 27.75C22.8073 27.8229 22.8646 27.8802 22.9375 27.9219C23.0208 27.974 23.1042 28 23.1875 28C23.1979 28 23.2031 28 23.2031 28C23.3177 28 23.4167 27.9635 23.5 27.8906C23.5938 27.8281 23.651 27.7396 23.6719 27.625L24.1406 25.9219L25.8438 26.375C25.8646 26.3854 25.8854 26.3906 25.9062 26.3906C25.9271 26.3906 25.9479 26.3906 25.9688 26.3906C26.0521 26.3906 26.125 26.375 26.1875 26.3438C26.2604 26.3021 26.3229 26.2552 26.375 26.2031C26.4062 26.1615 26.4271 26.1146 26.4375 26.0625C26.4583 26.0104 26.4688 25.9531 26.4688 25.8906C26.4688 25.849 26.4635 25.8073 26.4531 25.7656C26.4427 25.724 26.4271 25.6823 26.4062 25.6406ZM15.6875 17.0938L16.3281 16.2969C16.401 16.2135 16.4531 16.1198 16.4844 16.0156C16.526 15.901 16.5469 15.7812 16.5469 15.6562C16.5469 15.6458 16.5469 15.6354 16.5469 15.625C16.5469 15.6146 16.5469 15.6094 16.5469 15.6094L16.5156 14.5625L17.5 14.2969C17.625 14.2656 17.7344 14.2135 17.8281 14.1406C17.9323 14.0573 18.0208 13.9688 18.0938 13.875V13.8594L18.6875 13L19.6406 13.3594C19.6927 13.3802 19.75 13.401 19.8125 13.4219C19.875 13.4323 19.9375 13.4375 20 13.4375C20.0625 13.4375 20.125 13.4323 20.1875 13.4219C20.25 13.401 20.3125 13.3802 20.375 13.3594H20.3594L21.3438 13.0156L21.9062 13.8594C21.9792 13.9635 22.0625 14.0573 22.1562 14.1406C22.2604 14.2135 22.3698 14.2656 22.4844 14.2969H22.5L23.5 14.5938L23.4531 15.6094C23.4531 15.6198 23.4531 15.6302 23.4531 15.6406C23.4531 15.6406 23.4531 15.6458 23.4531 15.6562C23.4531 15.7812 23.4688 15.901 23.5 16.0156C23.5417 16.1198 23.599 16.2135 23.6719 16.2969L24.3125 17.125L23.6719 17.9219C23.599 18.0052 23.5417 18.1042 23.5 18.2188C23.4688 18.3229 23.4531 18.4375 23.4531 18.5625C23.4531 18.5729 23.4531 18.5833 23.4531 18.5938C23.4531 18.6042 23.4531 18.6146 23.4531 18.625V18.6094L23.4844 19.6562L22.5 19.9219C22.375 19.9635 22.2604 20.0208 22.1562 20.0938C22.0625 20.1667 21.9792 20.2552 21.9062 20.3594L21.3125 21.2188L20.3594 20.8594C20.3073 20.8385 20.25 20.8229 20.1875 20.8125C20.125 20.8021 20.0625 20.7969 20 20.7969C19.9375 20.7969 19.875 20.8021 19.8125 20.8125C19.75 20.8229 19.6875 20.8385 19.625 20.8594H19.6406L18.6562 21.2031L18.0938 20.3594C18.0208 20.2552 17.9323 20.1667 17.8281 20.0938C17.7344 20.0208 17.6302 19.9635 17.5156 19.9219H17.5L16.5 19.6406L16.5469 18.6094C16.5469 18.6094 16.5469 18.6042 16.5469 18.5938C16.5469 18.5833 16.5469 18.5729 16.5469 18.5625C16.5469 18.4375 16.526 18.3229 16.4844 18.2188C16.4531 18.1042 16.401 18.0052 16.3281 17.9219L15.6875 17.0938ZM16.9844 26.2031L16.7031 25.1719C16.6719 25.0677 16.6094 24.9844 16.5156 24.9219C16.4323 24.849 16.3333 24.8125 16.2188 24.8125C16.1979 24.8125 16.1719 24.8125 16.1406 24.8125C16.1198 24.8125 16.1042 24.8177 16.0938 24.8281L15.0625 25.0938L17.375 21.0938L17.8125 21.75C17.9062 21.8958 18.026 22.0104 18.1719 22.0938C18.3281 22.1771 18.4948 22.2188 18.6719 22.2188C18.7448 22.2188 18.8073 22.2135 18.8594 22.2031C18.9219 22.1927 18.9844 22.1771 19.0469 22.1562H19.0312L19.3906 22.0156L16.9844 26.2031ZM23.9062 24.8281C23.8854 24.8177 23.8646 24.8125 23.8438 24.8125C23.8229 24.8125 23.8021 24.8125 23.7812 24.8125C23.6667 24.8125 23.5625 24.849 23.4688 24.9219C23.3854 24.9844 23.3281 25.0677 23.2969 25.1719L23.0156 26.2031L20.6094 22.0156L20.9531 22.1562C21.0156 22.1771 21.0781 22.1927 21.1406 22.2031C21.2031 22.2135 21.2656 22.2188 21.3281 22.2188C21.5052 22.2188 21.6667 22.1771 21.8125 22.0938C21.9688 22.0104 22.0938 21.901 22.1875 21.7656V21.75L22.625 21.0938L24.9375 25.0938L23.9062 24.8281Z" fill="white"/>
<path d="M-1 6C-1 2.13401 2.13401 -1 6 -1H40V1H6C3.23858 1 1 3.23858 1 6H-1ZM40 40H0H40ZM-1 40V6C-1 2.13401 2.13401 -1 6 -1V1C3.23858 1 1 3.23858 1 6V40H-1ZM40 0V40V0Z" fill="#E5E7EB" mask="url(#path-3-inside-2_11_6623)"/>
<path d="M54.8203 14.5781C56.2943 14.5781 57.3698 14.8802 58.0469 15.4844C58.724 16.0885 59.0625 16.9349 59.0625 18.0234C59.0625 18.5182 58.9844 18.9896 58.8281 19.4375C58.6771 19.8802 58.4271 20.2734 58.0781 20.6172C57.7292 20.9557 57.2682 21.224 56.6953 21.4219C56.1276 21.6198 55.4271 21.7188 54.5938 21.7188H53.375V26H51.5V14.5781H54.8203ZM54.6953 16.1328H53.375V20.1562H54.3984C54.987 20.1562 55.487 20.0885 55.8984 19.9531C56.3099 19.8125 56.6224 19.5911 56.8359 19.2891C57.0495 18.987 57.1562 18.5885 57.1562 18.0938C57.1562 17.4323 56.9557 16.9401 56.5547 16.6172C56.1589 16.2943 55.5391 16.1328 54.6953 16.1328ZM64.5469 17.1875C65.6406 17.1875 66.4661 17.4297 67.0234 17.9141C67.5859 18.3984 67.8672 19.1536 67.8672 20.1797V26H66.5625L66.2109 24.7734H66.1484C65.9036 25.0859 65.651 25.3438 65.3906 25.5469C65.1302 25.75 64.8281 25.901 64.4844 26C64.1458 26.1042 63.7318 26.1562 63.2422 26.1562C62.7266 26.1562 62.2656 26.0625 61.8594 25.875C61.4531 25.6823 61.1328 25.3906 60.8984 25C60.6641 24.6094 60.5469 24.1146 60.5469 23.5156C60.5469 22.625 60.8776 21.9557 61.5391 21.5078C62.2057 21.0599 63.2109 20.8125 64.5547 20.7656L66.0547 20.7109V20.2578C66.0547 19.6589 65.9141 19.2318 65.6328 18.9766C65.3568 18.7214 64.9661 18.5938 64.4609 18.5938C64.0286 18.5938 63.6094 18.6562 63.2031 18.7812C62.7969 18.9062 62.401 19.0599 62.0156 19.2422L61.4219 17.9453C61.8438 17.7214 62.3229 17.5391 62.8594 17.3984C63.401 17.2578 63.9635 17.1875 64.5469 17.1875ZM66.0469 21.8672L64.9297 21.9062C64.013 21.9375 63.3698 22.0938 63 22.375C62.6302 22.6562 62.4453 23.0417 62.4453 23.5312C62.4453 23.9583 62.5729 24.2708 62.8281 24.4688C63.0833 24.6615 63.4193 24.7578 63.8359 24.7578C64.4714 24.7578 64.9974 24.5781 65.4141 24.2188C65.8359 23.8542 66.0469 23.3203 66.0469 22.6172V21.8672ZM73.6562 24.6719C73.8958 24.6719 74.1328 24.651 74.3672 24.6094C74.6016 24.5625 74.8151 24.5078 75.0078 24.4453V25.8359C74.8047 25.9245 74.5417 26 74.2188 26.0625C73.8958 26.125 73.5599 26.1562 73.2109 26.1562C72.7214 26.1562 72.2812 26.0755 71.8906 25.9141C71.5 25.7474 71.1901 25.4635 70.9609 25.0625C70.7318 24.6615 70.6172 24.1068 70.6172 23.3984V18.75H69.4375V17.9297L70.7031 17.2812L71.3047 15.4297H72.4609V17.3516H74.9375V18.75H72.4609V23.375C72.4609 23.8125 72.5703 24.138 72.7891 24.3516C73.0078 24.5651 73.2969 24.6719 73.6562 24.6719ZM80.2109 17.1875C80.9818 17.1875 81.6432 17.3464 82.1953 17.6641C82.7474 17.9818 83.1719 18.4323 83.4688 19.0156C83.7656 19.599 83.9141 20.2969 83.9141 21.1094V22.0938H78.1406C78.1615 22.9323 78.3854 23.5781 78.8125 24.0312C79.2448 24.4844 79.849 24.7109 80.625 24.7109C81.1771 24.7109 81.6719 24.6589 82.1094 24.5547C82.5521 24.4453 83.0078 24.2865 83.4766 24.0781V25.5703C83.0443 25.7734 82.6042 25.9219 82.1562 26.0156C81.7083 26.1094 81.1719 26.1562 80.5469 26.1562C79.6979 26.1562 78.9505 25.9922 78.3047 25.6641C77.6641 25.3307 77.1615 24.8359 76.7969 24.1797C76.4375 23.5234 76.2578 22.7083 76.2578 21.7344C76.2578 20.7656 76.4219 19.9427 76.75 19.2656C77.0781 18.5885 77.5391 18.0729 78.1328 17.7188C78.7266 17.3646 79.4193 17.1875 80.2109 17.1875ZM80.2109 18.5703C79.6328 18.5703 79.1641 18.7578 78.8047 19.1328C78.4505 19.5078 78.2422 20.0573 78.1797 20.7812H82.1172C82.112 20.349 82.0391 19.9661 81.8984 19.6328C81.763 19.2995 81.5547 19.0391 81.2734 18.8516C80.9974 18.6641 80.6432 18.5703 80.2109 18.5703ZM90.4922 17.1875C91.4661 17.1875 92.224 17.4401 92.7656 17.9453C93.3125 18.4453 93.5859 19.25 93.5859 20.3594V26H91.75V20.7031C91.75 20.0312 91.612 19.5286 91.3359 19.1953C91.0599 18.8568 90.6328 18.6875 90.0547 18.6875C89.2161 18.6875 88.6328 18.9453 88.3047 19.4609C87.9818 19.9766 87.8203 20.724 87.8203 21.7031V26H85.9844V17.3516H87.4141L87.6719 18.5234H87.7734C87.9609 18.2214 88.1927 17.974 88.4688 17.7812C88.75 17.5833 89.0625 17.4349 89.4062 17.3359C89.7552 17.237 90.1172 17.1875 90.4922 17.1875ZM99.375 24.6719C99.6146 24.6719 99.8516 24.651 100.086 24.6094C100.32 24.5625 100.534 24.5078 100.727 24.4453V25.8359C100.523 25.9245 100.26 26 99.9375 26.0625C99.6146 26.125 99.2786 26.1562 98.9297 26.1562C98.4401 26.1562 98 26.0755 97.6094 25.9141C97.2188 25.7474 96.9089 25.4635 96.6797 25.0625C96.4505 24.6615 96.3359 24.1068 96.3359 23.3984V18.75H95.1562V17.9297L96.4219 17.2812L97.0234 15.4297H98.1797V17.3516H100.656V18.75H98.1797V23.375C98.1797 23.8125 98.2891 24.138 98.5078 24.3516C98.7266 24.5651 99.0156 24.6719 99.375 24.6719Z" fill="#374151"/>
<path d="M-1 6C-1 2.13401 2.13401 -1 6 -1H112V1H6C3.23858 1 1 3.23858 1 6H-1ZM112 40H0H112ZM-1 40V6C-1 2.13401 2.13401 -1 6 -1V1C3.23858 1 1 3.23858 1 6V40H-1ZM112 0V40V0Z" fill="#E5E7EB" mask="url(#path-1-inside-1_11_6623)"/>
</svg>
